<?xml version="1.0" encoding="UTF-8" standalone="no"?>
<svg
   width="1080"
   zoomAndPan="magnify"
   viewBox="0 0 810 809.999993"
   height="1080"
   preserveAspectRatio="xMidYMid meet"
   version="1.2"
   id="svg68"
   sodipodi:docname="favicon.svg"
   inkscape:version="1.1.2 (0a00cf5339, 2022-02-04)"
   inkscape:export-filename="/home/suriel/Documentos/GitHub/Hikari/assets/img/favicon/mstile-310x310.png"
   inkscape:export-xdpi="27.555555"
   inkscape:export-ydpi="27.555555"
   xmlns:inkscape="http://www.inkscape.org/namespaces/inkscape"
   xmlns:sodipodi="http://sodipodi.sourceforge.net/DTD/sodipodi-0.dtd"
   xmlns="http://www.w3.org/2000/svg"
   xmlns:svg="http://www.w3.org/2000/svg">
  <sodipodi:namedview
     id="namedview70"
     pagecolor="#ffffff"
     bordercolor="#111111"
     borderopacity="1"
     inkscape:pageshadow="0"
     inkscape:pageopacity="0"
     inkscape:pagecheckerboard="1"
     showgrid="false"
     inkscape:zoom="0.78148148"
     inkscape:cx="542.55924"
     inkscape:cy="545.11848"
     inkscape:window-width="1706"
     inkscape:window-height="1020"
     inkscape:window-x="853"
     inkscape:window-y="0"
     inkscape:window-maximized="0"
     inkscape:current-layer="c1149cf7f3" />
  <defs
     id="defs17">
    <clipPath
       id="37e214edae">
      <path
         d="M 146 24.277344 L 638 24.277344 L 638 165 L 146 165 Z M 146 24.277344 "
         id="path2" />
    </clipPath>
    <clipPath
       id="799589facd">
      <path
         d="M 145.992188 24.308594 L 637.519531 24.308594 L 637.519531 164.570312 L 145.992188 164.570312 Z M 145.992188 24.308594 "
         id="path5" />
    </clipPath>
    <clipPath
       id="da19e364ff">
      <path
         d="M 348.34375 318.230469 L 435.449219 318.230469 L 435.449219 405.238281 L 348.34375 405.238281 Z M 348.34375 318.230469 "
         id="path8" />
    </clipPath>
    <clipPath
       id="407b796b5e">
      <path
         d="M 348 318 L 435.449219 318 L 435.449219 405.238281 L 348 405.238281 Z M 348 318 "
         id="path11" />
    </clipPath>
    <clipPath
       id="943674ee40">
      <path
         d="M 112 415.542969 L 698 415.542969 L 698 684 L 112 684 Z M 112 415.542969 "
         id="path14" />
    </clipPath>
  </defs>
  <g
     id="c1149cf7f3">
    <g
       clip-rule="nonzero"
       clip-path="url(#37e214edae)"
       id="g25">
      <path
         style=" stroke:none;fill-rule:nonzero;fill:#1ea8e7;fill-opacity:1;"
         d="M 630.238281 123.171875 C 566.628906 59.5625 481.933594 24.535156 391.753906 24.535156 C 301.574219 24.535156 216.878906 59.5625 153.273438 123.171875 C 143.863281 132.578125 143.863281 147.832031 153.273438 157.238281 C 162.683594 166.648438 177.929688 166.648438 187.339844 157.238281 C 300.054688 44.53125 483.453125 44.53125 596.167969 157.238281 C 600.871094 161.941406 607.035156 164.296875 613.199219 164.296875 C 619.367188 164.296875 625.53125 161.941406 630.238281 157.238281 C 639.644531 147.832031 639.644531 132.578125 630.238281 123.171875 "
         id="path23" />
    </g>
    <g
       clip-rule="nonzero"
       clip-path="url(#799589facd)"
       id="g29">
      <path
         style=" stroke:none;fill-rule:nonzero;fill:#1ea8e7;fill-opacity:1;"
         d="M 391.753906 72.484375 C 465.839844 72.484375 539.925781 100.679688 596.324219 157.078125 C 600.835938 161.585938 606.824219 164.070312 613.199219 164.070312 C 619.574219 164.070312 625.570312 161.585938 630.078125 157.078125 C 634.585938 152.570312 637.070312 146.578125 637.070312 140.203125 C 637.070312 133.828125 634.585938 127.835938 630.078125 123.328125 C 566.515625 59.761719 481.875 24.757812 391.753906 24.757812 C 301.628906 24.757812 216.988281 59.765625 153.429688 123.328125 C 148.921875 127.835938 146.4375 133.828125 146.4375 140.203125 C 146.4375 146.578125 148.921875 152.570312 153.429688 157.078125 C 157.9375 161.585938 163.929688 164.070312 170.304688 164.070312 C 176.679688 164.070312 182.675781 161.585938 187.183594 157.078125 C 243.582031 100.679688 317.667969 72.484375 391.753906 72.484375 Z M 613.199219 164.519531 C 606.707031 164.519531 600.601562 161.988281 596.007812 157.394531 C 483.382812 44.773438 300.125 44.773438 187.5 157.394531 C 182.90625 161.988281 176.800781 164.519531 170.304688 164.519531 C 163.8125 164.519531 157.707031 161.988281 153.113281 157.394531 C 148.519531 152.804688 145.992188 146.699219 145.992188 140.203125 C 145.992188 133.710938 148.519531 127.605469 153.113281 123.011719 C 216.757812 59.363281 301.511719 24.3125 391.753906 24.308594 C 481.996094 24.308594 566.746094 59.363281 630.394531 123.011719 C 634.984375 127.605469 637.519531 133.710938 637.519531 140.203125 C 637.519531 146.699219 634.984375 152.804688 630.394531 157.394531 C 625.800781 161.988281 619.695312 164.519531 613.199219 164.519531 "
         id="path27" />
    </g>
    <path
       style=" stroke:none;fill-rule:nonzero;fill:#1ea8e7;fill-opacity:1;"
       d="M 391.753906 120.851562 C 327.34375 120.851562 266.847656 145.875 221.410156 191.3125 C 212 200.714844 212 215.96875 221.410156 225.375 C 226.113281 230.082031 232.277344 232.433594 238.441406 232.433594 C 244.609375 232.433594 250.773438 230.082031 255.476562 225.375 C 291.8125 189.042969 340.210938 169.03125 391.753906 169.03125 C 443.296875 169.03125 491.691406 189.042969 528.03125 225.375 C 537.4375 234.792969 552.6875 234.792969 562.097656 225.375 C 571.507812 215.96875 571.507812 200.714844 562.097656 191.3125 C 516.664062 145.875 456.167969 120.851562 391.753906 120.851562 "
       id="path31" />
    <path
       style=" stroke:none;fill-rule:nonzero;fill:#1ea8e7;fill-opacity:1;"
       d="M 391.753906 168.808594 C 443.355469 168.808594 491.808594 188.84375 528.1875 225.21875 C 532.695312 229.730469 538.6875 232.214844 545.0625 232.214844 C 551.4375 232.214844 557.429688 229.730469 561.941406 225.21875 C 566.449219 220.710938 568.933594 214.71875 568.933594 208.34375 C 568.933594 201.96875 566.449219 195.976562 561.941406 191.46875 C 516.546875 146.074219 456.109375 121.078125 391.753906 121.078125 C 327.402344 121.078125 266.960938 146.074219 221.566406 191.46875 C 217.058594 195.976562 214.578125 201.96875 214.578125 208.34375 C 214.578125 214.71875 217.058594 220.710938 221.566406 225.21875 C 226.074219 229.726562 232.070312 232.210938 238.441406 232.210938 C 244.816406 232.210938 250.8125 229.726562 255.320312 225.21875 C 291.699219 188.84375 340.152344 168.808594 391.753906 168.808594 Z M 545.0625 232.660156 C 538.570312 232.660156 532.464844 230.128906 527.871094 225.535156 C 491.574219 189.242188 443.234375 169.257812 391.753906 169.257812 C 340.269531 169.257812 291.929688 189.242188 255.636719 225.535156 C 251.042969 230.128906 244.9375 232.660156 238.441406 232.660156 C 231.949219 232.660156 225.84375 230.128906 221.25 225.535156 C 216.660156 220.941406 214.128906 214.835938 214.128906 208.34375 C 214.128906 201.851562 216.660156 195.746094 221.25 191.15625 C 266.730469 145.675781 327.28125 120.628906 391.753906 120.628906 C 456.226562 120.628906 516.78125 145.675781 562.257812 191.15625 C 566.847656 195.746094 569.378906 201.851562 569.378906 208.34375 C 569.378906 214.835938 566.847656 220.941406 562.257812 225.535156 C 557.664062 230.128906 551.558594 232.660156 545.0625 232.660156 "
       id="path33" />
    <path
       style=" stroke:none;fill-rule:nonzero;fill:#1ea8e7;fill-opacity:1;"
       d="M 289.546875 259.445312 C 280.140625 268.851562 280.140625 284.105469 289.546875 293.511719 C 298.957031 302.921875 314.207031 302.925781 323.617188 293.511719 C 361.1875 255.945312 422.320312 255.945312 459.890625 293.511719 C 464.597656 298.21875 470.761719 300.570312 476.925781 300.570312 C 483.09375 300.570312 489.257812 298.21875 493.960938 293.511719 C 503.371094 284.105469 503.371094 268.851562 493.960938 259.445312 C 437.601562 203.085938 345.902344 203.085938 289.546875 259.445312 "
       id="path35" />
    <path
       style=" stroke:none;fill-rule:nonzero;fill:#1ea8e7;fill-opacity:1;"
       d="M 289.703125 259.605469 C 285.195312 264.113281 282.714844 270.101562 282.714844 276.480469 C 282.714844 282.855469 285.195312 288.847656 289.703125 293.355469 C 294.214844 297.863281 300.207031 300.347656 306.582031 300.347656 C 306.582031 300.347656 306.582031 300.347656 306.585938 300.347656 C 312.957031 300.347656 318.949219 297.863281 323.457031 293.355469 C 361.117188 255.703125 422.390625 255.703125 460.050781 293.355469 C 464.558594 297.863281 470.550781 300.347656 476.925781 300.347656 C 483.304688 300.347656 489.296875 297.863281 493.804688 293.355469 C 498.3125 288.847656 500.792969 282.855469 500.792969 276.480469 C 500.792969 270.101562 498.3125 264.113281 493.804688 259.605469 C 466.589844 232.390625 430.347656 217.402344 391.753906 217.402344 C 353.160156 217.402344 316.917969 232.390625 289.703125 259.605469 Z M 306.585938 300.792969 C 306.582031 300.792969 306.582031 300.792969 306.582031 300.792969 C 300.089844 300.792969 293.984375 298.265625 289.386719 293.671875 C 284.796875 289.078125 282.269531 282.972656 282.269531 276.480469 C 282.269531 269.984375 284.796875 263.878906 289.386719 259.289062 C 316.6875 231.988281 353.042969 216.953125 391.753906 216.953125 C 430.464844 216.953125 466.820312 231.988281 494.121094 259.289062 C 498.710938 263.878906 501.242188 269.984375 501.242188 276.480469 C 501.242188 282.972656 498.710938 289.078125 494.121094 293.671875 C 489.527344 298.261719 483.421875 300.792969 476.925781 300.792969 C 470.433594 300.792969 464.328125 298.261719 459.734375 293.671875 C 422.25 256.191406 361.257812 256.191406 323.773438 293.671875 C 319.183594 298.265625 313.078125 300.792969 306.585938 300.792969 "
       id="path37" />
    <g
       clip-rule="nonzero"
       clip-path="url(#da19e364ff)"
       id="g41">
      <path
         style=" stroke:none;fill-rule:nonzero;fill:#1ea8e7;fill-opacity:1;"
         d="M 391.753906 318.289062 C 380.167969 318.289062 369.28125 322.800781 361.09375 330.988281 C 352.902344 339.179688 348.390625 350.066406 348.390625 361.652344 C 348.390625 373.234375 352.902344 384.125 361.089844 392.308594 C 369.28125 400.503906 380.167969 405.015625 391.753906 405.015625 C 403.335938 405.015625 414.226562 400.503906 422.414062 392.316406 C 422.414062 392.316406 422.414062 392.308594 422.417969 392.308594 C 430.605469 384.125 435.117188 373.234375 435.117188 361.652344 C 435.117188 350.066406 430.605469 339.179688 422.417969 330.992188 C 414.226562 322.800781 403.335938 318.289062 391.753906 318.289062 "
         id="path39" />
    </g>
    <g
       clip-rule="nonzero"
       clip-path="url(#407b796b5e)"
       id="g45">
      <path
         style=" stroke:none;fill-rule:nonzero;fill:#1ea8e7;fill-opacity:1;"
         d="M 391.753906 318.511719 C 380.230469 318.511719 369.398438 323 361.25 331.148438 C 353.101562 339.296875 348.613281 350.128906 348.613281 361.652344 C 348.613281 373.175781 353.101562 384.007812 361.25 392.152344 C 369.398438 400.300781 380.230469 404.792969 391.753906 404.792969 C 403.246094 404.792969 414.050781 400.328125 422.191406 392.222656 L 422.191406 392.09375 L 422.324219 392.089844 C 430.429688 383.949219 434.894531 373.144531 434.894531 361.652344 C 434.894531 350.128906 430.40625 339.296875 422.261719 331.152344 C 414.113281 323 403.277344 318.511719 391.753906 318.511719 Z M 391.753906 405.238281 C 380.109375 405.238281 369.164062 400.703125 360.933594 392.46875 C 352.703125 384.238281 348.167969 373.292969 348.167969 361.652344 C 348.167969 350.007812 352.703125 339.0625 360.933594 330.832031 C 369.167969 322.597656 380.109375 318.066406 391.753906 318.066406 C 403.394531 318.066406 414.34375 322.601562 422.574219 330.835938 C 430.804688 339.066406 435.339844 350.007812 435.339844 361.652344 C 435.339844 373.265625 430.828125 384.183594 422.636719 392.40625 L 422.574219 392.472656 C 414.339844 400.703125 403.394531 405.238281 391.753906 405.238281 "
         id="path43" />
    </g>
    <g
       clip-rule="nonzero"
       clip-path="url(#943674ee40)"
       id="g49">
      <path
         style=" stroke:none;fill-rule:nonzero;fill:#008eaf;fill-opacity:1;"
         d="M 654.46875 415.519531 L 155.195312 415.519531 C 131.40625 415.519531 112.03125 434.894531 112.03125 458.671875 L 112.03125 639.816406 C 112.03125 663.636719 131.40625 683.011719 155.195312 683.011719 L 466.003906 683.011719 C 465.519531 673.429688 465.0625 663.785156 464.65625 654.09375 L 155.195312 654.09375 C 147.351562 654.09375 140.945312 647.703125 140.945312 639.816406 L 140.945312 458.671875 C 140.945312 450.839844 147.351562 444.4375 155.195312 444.4375 L 654.46875 444.4375 C 662.3125 444.4375 668.71875 450.839844 668.71875 458.671875 L 668.71875 639.816406 C 668.71875 647.703125 662.3125 654.09375 654.46875 654.09375 L 619.589844 654.09375 C 626.101562 662.8125 627.503906 671.695312 627.609375 677.453125 C 627.652344 678.894531 627.582031 680.820312 627.289062 683.011719 L 654.46875 683.011719 C 678.257812 683.011719 697.636719 663.636719 697.636719 639.816406 L 697.636719 458.671875 C 697.636719 434.894531 678.257812 415.519531 654.46875 415.519531 "
         id="path47" />
    </g>
    <path
       style=" stroke:none;fill-rule:nonzero;fill:#008eaf;fill-opacity:1;"
       d="M 294.25 524.082031 L 284.574219 524.082031 C 282.960938 524.082031 281.546875 525.160156 281.105469 526.71875 L 273.433594 553.714844 C 273.085938 554.964844 272.734375 556.242188 272.371094 557.5625 C 271.996094 556.257812 271.578125 554.910156 271.148438 553.511719 L 262.816406 526.640625 C 262.347656 525.117188 260.945312 524.082031 259.359375 524.082031 L 251.136719 524.082031 C 249.5625 524.082031 248.175781 525.105469 247.691406 526.597656 L 238.917969 554.078125 C 238.515625 555.355469 238.125 556.632812 237.734375 557.925781 C 237.414062 556.671875 237.089844 555.410156 236.753906 554.117188 L 229.648438 526.789062 C 229.230469 525.199219 227.792969 524.082031 226.148438 524.082031 L 216.152344 524.082031 C 215.007812 524.082031 213.933594 524.632812 213.246094 525.550781 C 212.558594 526.464844 212.359375 527.648438 212.679688 528.738281 L 228.910156 582.507812 C 229.367188 584.042969 230.777344 585.09375 232.367188 585.09375 L 241.261719 585.09375 C 242.808594 585.09375 244.179688 584.097656 244.679688 582.628906 L 253.359375 557.050781 C 253.871094 555.476562 254.394531 553.847656 254.90625 552.164062 C 255.363281 553.714844 255.859375 555.289062 256.371094 556.914062 L 264.582031 582.578125 C 265.066406 584.070312 266.449219 585.09375 268.023438 585.09375 L 276.917969 585.09375 C 278.480469 585.09375 279.878906 584.070312 280.351562 582.578125 L 297.683594 528.804688 C 298.046875 527.714844 297.84375 526.503906 297.171875 525.578125 C 296.484375 524.632812 295.394531 524.082031 294.25 524.082031 "
       id="path51" />
    <path
       style=" stroke:none;fill-rule:nonzero;fill:#008eaf;fill-opacity:1;"
       d="M 385.683594 524.082031 L 376.023438 524.082031 C 374.410156 524.082031 372.996094 525.160156 372.550781 526.707031 L 364.882812 553.714844 C 364.53125 554.949219 364.183594 556.242188 363.820312 557.5625 C 363.429688 556.257812 363.023438 554.910156 362.59375 553.511719 L 354.265625 526.640625 C 353.792969 525.117188 352.394531 524.082031 350.804688 524.082031 L 342.585938 524.082031 C 341.011719 524.082031 339.625 525.105469 339.140625 526.597656 L 330.351562 554.078125 C 329.964844 555.355469 329.574219 556.632812 329.183594 557.925781 C 328.859375 556.671875 328.535156 555.410156 328.199219 554.117188 L 321.09375 526.789062 C 320.679688 525.199219 319.238281 524.082031 317.582031 524.082031 L 307.585938 524.082031 C 306.441406 524.082031 305.367188 524.632812 304.691406 525.550781 C 304.007812 526.464844 303.804688 527.648438 304.128906 528.738281 L 320.355469 582.507812 C 320.8125 584.042969 322.210938 585.09375 323.8125 585.09375 L 332.695312 585.09375 C 334.253906 585.09375 335.628906 584.097656 336.125 582.628906 L 344.804688 557.050781 C 345.316406 555.476562 345.828125 553.847656 346.351562 552.164062 C 346.808594 553.714844 347.292969 555.289062 347.804688 556.914062 L 356.027344 582.578125 C 356.511719 584.070312 357.898438 585.09375 359.472656 585.09375 L 368.351562 585.09375 C 369.925781 585.09375 371.3125 584.070312 371.796875 582.578125 L 389.128906 528.804688 C 389.480469 527.714844 389.289062 526.503906 388.605469 525.578125 C 387.929688 524.632812 386.839844 524.082031 385.683594 524.082031 "
       id="path53" />
    <path
       style=" stroke:none;fill-rule:nonzero;fill:#008eaf;fill-opacity:1;"
       d="M 477.132812 524.082031 L 467.46875 524.082031 C 465.855469 524.082031 464.441406 525.160156 464 526.71875 L 456.328125 553.714844 C 455.980469 554.964844 455.617188 556.242188 455.265625 557.574219 C 454.875 556.257812 454.472656 554.910156 454.039062 553.511719 L 445.699219 526.640625 C 445.242188 525.117188 443.839844 524.082031 442.253906 524.082031 L 434.03125 524.082031 C 432.457031 524.082031 431.070312 525.105469 430.585938 526.597656 L 421.800781 554.078125 C 421.410156 555.355469 421.019531 556.632812 420.628906 557.925781 C 420.308594 556.671875 419.984375 555.410156 419.648438 554.117188 L 412.527344 526.789062 C 412.125 525.199219 410.6875 524.082031 409.03125 524.082031 L 399.03125 524.082031 C 397.890625 524.082031 396.8125 524.632812 396.140625 525.550781 C 395.453125 526.464844 395.25 527.648438 395.574219 528.738281 L 411.800781 582.507812 C 412.261719 584.042969 413.660156 585.09375 415.261719 585.09375 L 424.140625 585.09375 C 425.6875 585.09375 427.074219 584.097656 427.574219 582.628906 L 436.238281 557.050781 C 436.761719 555.476562 437.273438 553.847656 437.800781 552.164062 C 438.257812 553.714844 438.742188 555.289062 439.253906 556.914062 L 447.472656 582.578125 C 447.957031 584.070312 449.34375 585.09375 450.917969 585.09375 L 459.8125 585.09375 C 461.375 585.09375 462.761719 584.070312 463.257812 582.578125 L 480.578125 528.804688 C 480.941406 527.714844 480.738281 526.503906 480.066406 525.578125 C 479.378906 524.632812 478.289062 524.082031 477.132812 524.082031 "
       id="path55" />
    <path
       style=" stroke:none;fill-rule:nonzero;fill:#008eaf;fill-opacity:1;"
       d="M 498.082031 525.964844 C 492.214844 525.964844 487.800781 530.542969 487.800781 536.582031 C 487.800781 542.570312 492.175781 547.09375 497.960938 547.09375 C 503.921875 547.09375 508.253906 542.679688 508.253906 536.488281 C 508.082031 530.300781 503.894531 525.964844 498.082031 525.964844 "
       id="path57" />
    <path
       style=" stroke:none;fill-rule:nonzero;fill:#008eaf;fill-opacity:1;"
       d="M 498.082031 565.191406 C 492.214844 565.191406 487.800781 569.753906 487.800781 575.808594 C 487.800781 581.796875 492.175781 586.304688 497.960938 586.304688 C 503.921875 586.304688 508.253906 581.890625 508.253906 575.714844 C 508.082031 569.511719 503.894531 565.191406 498.082031 565.191406 "
       id="path59" />
    <path
       style=" stroke:none;fill-rule:nonzero;fill:#008eaf;fill-opacity:1;"
       d="M 558.40625 503.332031 C 557.734375 502.339844 556.617188 501.757812 555.417969 501.757812 L 547.871094 501.757812 C 546.375 501.757812 545.03125 502.675781 544.492188 504.074219 L 513.488281 584.621094 C 513.074219 585.726562 513.21875 586.976562 513.894531 587.957031 C 514.566406 588.941406 515.683594 589.53125 516.867188 589.53125 L 524.308594 589.53125 C 525.800781 589.53125 527.148438 588.605469 527.6875 587.21875 L 558.796875 506.671875 C 559.226562 505.566406 559.078125 504.316406 558.40625 503.332031 "
       id="path61" />
    <path
       style=" stroke:none;fill-rule:nonzero;fill:#008eaf;fill-opacity:1;"
       d="M 596.5 503.332031 C 595.828125 502.339844 594.710938 501.757812 593.527344 501.757812 L 585.976562 501.757812 C 584.484375 501.757812 583.136719 502.675781 582.601562 504.074219 L 551.597656 584.621094 C 551.179688 585.726562 551.328125 586.976562 552 587.957031 C 552.671875 588.941406 553.789062 589.53125 554.972656 589.53125 L 562.414062 589.53125 C 563.910156 589.53125 565.253906 588.605469 565.792969 587.21875 L 596.890625 506.671875 C 597.320312 505.566406 597.171875 504.316406 596.5 503.332031 "
       id="path63" />
    <path
       style=" stroke:none;fill-rule:nonzero;fill:#008eaf;fill-opacity:1;"
       d="M 579.679688 757.371094 L 548.234375 708.105469 C 546.324219 705.105469 543.214844 703.046875 539.660156 702.46875 C 538.976562 702.320312 538.289062 702.28125 537.5625 702.28125 C 534.75 702.28125 531.964844 703.222656 529.730469 705.039062 C 527.808594 706.519531 525.894531 708.132812 523.945312 709.761719 C 520.433594 712.734375 516.785156 715.765625 513.097656 718.292969 L 512.265625 701.675781 C 511.257812 681.503906 510.167969 660.675781 509.414062 640.179688 C 531.425781 651.390625 554.125 663.136719 578.5625 675.972656 C 574.835938 677.777344 570.503906 679.191406 565.914062 680.628906 C 563.046875 681.53125 560.234375 682.433594 557.492188 683.457031 C 553.871094 684.761719 551.046875 687.640625 549.820312 691.300781 C 548.625 694.90625 549.109375 698.917969 551.195312 702.132812 L 584.5625 754.195312 Z M 609.835938 746.671875 L 581.269531 702.214844 C 585.25 700.761719 589.21875 699.105469 593.121094 696.859375 C 606.039062 689.484375 607.804688 680.308594 607.734375 675.464844 C 607.628906 669.609375 604.910156 661.253906 592.476562 654.671875 C 592.476562 654.671875 592.476562 654.671875 592.449219 654.671875 C 566.265625 640.933594 542.125 628.433594 518.671875 616.5 C 506.628906 610.324219 498.460938 612.636719 493.722656 615.679688 C 489.027344 618.636719 483.523438 624.960938 483.992188 638.082031 C 484.789062 659.734375 485.917969 681.71875 486.996094 702.941406 L 487.894531 721.160156 C 488.621094 735.179688 494.839844 741.25 499.941406 743.886719 C 505 746.496094 513.460938 748.042969 525.0625 740.671875 C 528.464844 738.542969 531.640625 736.148438 534.601562 733.769531 L 562.363281 777.257812 C 564.972656 781.308594 568.980469 784.121094 573.679688 785.144531 C 574.941406 785.386719 576.207031 785.535156 577.511719 785.535156 C 580.945312 785.535156 584.308594 784.550781 587.269531 782.601562 L 604.480469 771.40625 C 612.753906 766.050781 615.148438 754.960938 609.835938 746.671875 "
       id="path65" />
  </g>
</svg>
