<svg xmlns="http://www.w3.org/2000/svg" xmlns:xlink="http://www.w3.org/1999/xlink" width="1000" zoomAndPan="magnify" viewBox="0 0 750 262.499992" height="350" preserveAspectRatio="xMidYMid meet" version="1.0"><defs><g/><clipPath id="81f26326b6"><path d="M 1.152344 71.976562 L 219.195312 71.976562 L 219.195312 190.234375 L 1.152344 190.234375 Z M 1.152344 71.976562 " clip-rule="nonzero"/></clipPath><clipPath id="7b9c044224"><path d="M 21 138 L 220.046875 138 L 220.046875 178 L 21 178 Z M 21 138 " clip-rule="nonzero"/></clipPath></defs><path fill="#ebebeb" d="M 205.195312 172.09375 L 120.957031 175.6875 L 112.148438 183.421875 C 112.148438 183.421875 24.054688 176.515625 22.398438 176.242188 C 20.746094 175.960938 16.203125 171.128906 14.972656 171.128906 C 13.730469 171.128906 5.058594 169.609375 5.058594 169.609375 C 5.058594 169.609375 4.394531 98.851562 5.941406 96.472656 C 7.496094 94.101562 12.761719 92.691406 15.382812 92.136719 C 18 91.585938 92.277344 73.839844 93.972656 72.945312 C 95.675781 72.046875 151.8125 73.449219 160.730469 74.464844 C 169.660156 75.472656 176.292969 79.898438 178.382812 82.9375 C 180.472656 85.976562 198.445312 120.445312 198.445312 120.445312 L 214.691406 135.773438 C 214.691406 135.773438 218.40625 150.6875 216.894531 158.839844 C 215.378906 166.988281 205.195312 172.09375 205.195312 172.09375 " fill-opacity="1" fill-rule="evenodd"/><path stroke-linecap="round" transform="matrix(-0.0487148, 0, 0, -0.0488738, 220.170709, 190.232034)" fill="none" stroke-linejoin="round" d="M 307.409365 371.124601 L 2036.62144 297.593444 L 2217.440973 139.341604 C 2217.440973 139.341604 4025.796676 280.649307 4059.795559 286.244069 C 4093.714256 291.998682 4186.970627 390.866119 4212.229232 390.866119 C 4237.728394 390.866119 4415.741416 421.95701 4415.741416 421.95701 C 4415.741416 421.95701 4429.373044 1869.721565 4397.619369 1918.395994 C 4365.705323 1966.910574 4257.614534 1995.76356 4203.809697 2007.112935 C 4150.085046 2018.382384 2625.347388 2381.482438 2590.546644 2399.785302 C 2555.585528 2418.168091 1403.231866 2389.474955 1220.167123 2368.69441 C 1036.861823 2348.073716 900.705917 2257.518497 857.806383 2195.336713 C 814.906848 2133.15493 445.970852 1427.895218 445.970852 1427.895218 L 112.477088 1114.268845 C 112.477088 1114.268845 36.220159 809.114541 67.252158 642.310708 C 98.364344 475.5868 307.409365 371.124601 307.409365 371.124601 Z M 307.409365 371.124601 " stroke="#000000" stroke-width="2.835" stroke-opacity="1" stroke-miterlimit="10"/><g clip-path="url(#81f26326b6)"><path fill="#202020" d="M 67.332031 145.695312 C 67.332031 145.695312 68.882812 91.316406 67.855469 91.625 C 66.816406 91.941406 12.3125 104.675781 12.3125 105.296875 C 12.3125 105.585938 23.625 103.316406 35.859375 100.777344 C 35.796875 107.128906 35.480469 142.757812 36.257812 144.550781 C 37.09375 146.453125 38.257812 103.324219 38.335938 100.261719 C 52.019531 97.414062 65.988281 94.421875 65.988281 94.421875 C 65.988281 94.421875 65.171875 146.726562 66.402344 146.929688 C 67.644531 147.140625 67.332031 145.695312 67.332031 145.695312 Z M 33.316406 144.964844 C 33.316406 144.964844 31.199219 140.769531 26.300781 140.925781 C 21.394531 141.082031 20.160156 144.707031 19.949219 145.175781 C 19.746094 145.640625 23.953125 141.992188 28.574219 143.363281 C 33.191406 144.730469 33.316406 144.964844 33.316406 144.964844 Z M 81.113281 157.757812 C 80.082031 157.703125 35.953125 156.355469 35.953125 155.378906 C 35.953125 154.390625 81.527344 152.214844 83.640625 152.527344 C 90.96875 153.601562 88.214844 158.109375 81.113281 157.757812 Z M 114.613281 125.910156 C 114.613281 125.910156 102.640625 89.660156 97.578125 86.757812 C 92.519531 83.859375 76 89.550781 76 89.550781 C 76 89.550781 75.589844 102.085938 78.898438 111.308594 C 82.199219 120.523438 87.980469 123.632812 91.59375 124.460938 C 95.207031 125.292969 100.675781 125.910156 100.675781 125.910156 C 100.675781 125.910156 99.289062 115.082031 100.105469 113.6875 C 100.933594 112.285156 106.257812 111.667969 107.386719 113.476562 C 108.527344 115.292969 109.398438 122.800781 110.84375 123.945312 C 112.289062 125.078125 114.613281 125.910156 114.613281 125.910156 Z M 128.285156 180.453125 C 135.667969 180.359375 148.355469 180.1875 161.246094 180.007812 C 161.550781 180.523438 161.917969 181.058594 162.363281 181.628906 C 163.820312 183.5 165.679688 184.792969 167.40625 185.675781 C 148.050781 184.8125 125.25 184.117188 125.25 184.117188 C 125.25 184.117188 127.027344 182.144531 128.285156 180.453125 Z M 205.765625 142.375 C 205.765625 142.375 207.164062 149.265625 205.25 153.664062 C 203.339844 158.070312 201.433594 158.632812 201.433594 158.632812 C 201.433594 158.632812 171.648438 159.933594 167.308594 158.484375 C 162.976562 157.027344 156.113281 142.898438 157.609375 141.136719 C 159.109375 139.375 203.597656 140.253906 204.320312 140.621094 C 205.046875 140.980469 205.765625 142.375 205.765625 142.375 Z M 216.019531 134.082031 C 215.957031 133.925781 215.855469 133.785156 215.722656 133.675781 C 215.683594 133.636719 201.386719 121.15625 199.070312 118.730469 C 198.445312 118.074219 196.449219 114.320312 193.800781 109.359375 C 187.777344 98.03125 178.476562 80.554688 172.75 76.824219 C 166.59375 72.804688 140.910156 71.875 128.933594 72.828125 C 128.933594 74.285156 163.757812 74.511719 170.546875 78.9375 C 172.210938 80.023438 174.308594 82.527344 176.589844 85.808594 C 167.324219 85.355469 116.570312 82.890625 108.160156 83.015625 C 103.34375 74.675781 99.839844 70.332031 89.144531 72.554688 C 89.085938 72.5625 89.042969 72.570312 88.996094 72.585938 L 9.953125 92.917969 C 8.421875 93.308594 7.433594 93.945312 6.722656 94.945312 C 6.128906 95.777344 5.777344 96.800781 5.488281 98.132812 C 5.449219 98.296875 5.414062 98.46875 5.378906 98.648438 C 5.335938 98.890625 5.355469 99.125 5.449219 99.339844 C 5.1875 108.25 3.578125 163.652344 4.71875 163.558594 C 5.957031 163.457031 7.675781 99.113281 7.675781 99.113281 C 7.933594 97.820312 8.1875 96.90625 8.617188 96.308594 C 9 95.777344 9.578125 95.429688 10.53125 95.179688 L 89.546875 74.859375 C 100.347656 73.175781 101.832031 78.402344 106.527344 87.265625 C 113.535156 100.488281 124.570312 123.386719 128.058594 130.652344 C 128.183594 133.199219 128.988281 143.824219 133.25 146.78125 C 138.09375 150.148438 150.484375 151.855469 151.929688 152.113281 C 153.371094 152.371094 154.042969 151.753906 154.042969 151.753906 C 154.042969 151.753906 153.171875 143.71875 150.585938 140.722656 C 148.191406 137.929688 135.941406 130.441406 131.609375 128.8125 C 130.464844 126.425781 128.621094 122.621094 126.410156 118.117188 L 191.46875 119.332031 C 191.46875 119.332031 191.1875 118.792969 190.707031 117.886719 C 185.609375 117.296875 169.277344 115.386719 167.792969 114.535156 C 166.039062 113.523438 143.320312 89.121094 143.320312 89.121094 C 167.207031 86.601562 170.765625 92.222656 184.804688 106.265625 C 181.746094 100.042969 178.929688 93.851562 179.601562 93.441406 C 180.152344 93.097656 180.71875 92.988281 181.191406 92.964844 C 184.8125 98.96875 188.464844 105.726562 191.28125 111.027344 C 194.011719 116.160156 195.925781 120.554688 196.769531 121.4375 C 198.671875 123.4375 207.480469 131.5625 211.238281 135.015625 C 210.386719 137.050781 209.488281 140.0625 209.847656 142.585938 C 210.417969 146.570312 212.6875 149.78125 213.515625 149.316406 C 213.96875 149.058594 215.324219 148.253906 216.480469 147.429688 C 216.738281 149.175781 216.875 152.246094 215.832031 156.464844 C 215.199219 159.035156 214.675781 160.84375 214.273438 162.109375 L 136.285156 162.109375 C 136.003906 158.5625 133.386719 151.691406 132.578125 151.644531 C 131.8125 151.605469 131.460938 158.453125 131.3125 162.109375 L 122.316406 162.109375 C 121.316406 152.160156 116.507812 144.039062 107.597656 143.777344 C 97.507812 143.476562 93.089844 154.4375 93.089844 166.121094 C 93.089844 169.140625 93.410156 172 94.050781 174.582031 L 34.441406 171.707031 C 34.976562 169.800781 35.28125 167.691406 35.28125 165.46875 C 35.28125 156.898438 30.820312 149.9375 25.320312 149.9375 C 19.816406 149.9375 15.351562 156.898438 15.351562 165.46875 C 15.351562 166.550781 15.421875 167.597656 15.558594 168.617188 C 12.078125 168.4375 3.007812 168.027344 2.757812 168.53125 C 2.453125 169.148438 3.382812 171.324219 5.394531 172.257812 C 6.871094 172.9375 13.636719 173.902344 17.148438 174.363281 C 17.53125 175.21875 17.96875 176 18.445312 176.71875 C 14.550781 176.484375 4.882812 175.945312 3.898438 176.195312 C 2.65625 176.5 1.367188 177.226562 1.15625 177.957031 C 0.957031 178.675781 6.683594 180.335938 8.695312 180.59375 C 10.710938 180.851562 132.679688 190.539062 135.058594 190.226562 C 137.429688 189.917969 191.421875 189.191406 193.996094 187.742188 C 194.507812 187.453125 192.171875 187.148438 188.097656 186.828125 C 188.597656 186.664062 189.105469 186.492188 189.613281 186.292969 C 195.496094 184.007812 197.851562 181.1875 198.78125 179.484375 C 201.316406 179.445312 202.972656 179.414062 203.449219 179.40625 C 207.164062 179.300781 213.25 175.261719 215.003906 172.359375 C 216.761719 169.464844 218.3125 163.660156 218.257812 163.042969 C 218.203125 162.417969 217.074219 162.109375 217.074219 162.109375 L 216.863281 162.109375 C 217.582031 159.785156 219.09375 154.429688 219.140625 151.023438 C 219.171875 148.160156 218.671875 146.492188 218.304688 145.667969 C 218.570312 144.707031 218.289062 138.3125 216.605469 135.023438 C 216.425781 134.652344 216.222656 134.351562 216.019531 134.082031 Z M 121.480469 141.855469 C 119.515625 137.027344 116.515625 134.035156 111.445312 132.46875 C 106.121094 130.832031 98.125 132.925781 95.488281 137.988281 L 94.886719 139.71875 C 98.203125 136.507812 100.488281 134.632812 105.375 134.308594 C 113 133.800781 116.507812 136.816406 121.480469 141.855469 " fill-opacity="1" fill-rule="evenodd"/></g><g clip-path="url(#7b9c044224)"><path fill="#ffffff" d="M 105.890625 154.234375 C 102.527344 154.234375 99.804688 159.472656 99.804688 165.9375 C 99.804688 172.40625 102.527344 177.644531 105.890625 177.644531 C 109.253906 177.644531 111.984375 172.40625 111.984375 165.9375 C 111.984375 159.472656 109.253906 154.234375 105.890625 154.234375 Z M 139.78125 138.703125 C 137.625 138.703125 135.878906 140.449219 135.878906 142.609375 C 135.878906 144.769531 137.625 146.523438 139.78125 146.523438 C 141.933594 146.523438 143.671875 144.769531 143.671875 142.609375 C 143.671875 140.449219 141.933594 138.703125 139.78125 138.703125 Z M 148.113281 144.246094 C 146.976562 144.246094 146.046875 145.167969 146.046875 146.3125 C 146.046875 147.453125 146.976562 148.386719 148.113281 148.386719 C 149.253906 148.386719 150.179688 147.453125 150.179688 146.3125 C 150.179688 145.167969 149.253906 144.246094 148.113281 144.246094 Z M 217.539062 139.164062 C 216.082031 139.164062 214.902344 140.410156 214.902344 141.933594 C 214.902344 143.46875 216.082031 144.707031 217.539062 144.707031 C 218.992188 144.707031 220.171875 143.46875 220.171875 141.933594 C 220.171875 140.410156 218.992188 139.164062 217.539062 139.164062 Z M 24.710938 157.226562 C 22.71875 157.226562 21.097656 160.960938 21.097656 165.5625 C 21.097656 170.167969 22.71875 173.902344 24.710938 173.902344 C 26.707031 173.902344 28.320312 170.167969 28.320312 165.5625 C 28.320312 160.960938 26.707031 157.226562 24.710938 157.226562 " fill-opacity="1" fill-rule="evenodd"/></g><g fill="#ebebeb" fill-opacity="1"><g transform="translate(247.615891, 158.372721)"><g><path d="M 35.375 -11.625 C 37.3125 -11.625 38.75 -11.859375 39.6875 -12.328125 C 40.632812 -12.796875 41.257812 -13.875 41.5625 -15.5625 L 44.984375 -34.9375 L 39.03125 -34.9375 C 37.144531 -34.9375 35.726562 -34.695312 34.78125 -34.21875 C 33.84375 -33.75 33.222656 -32.671875 32.921875 -30.984375 L 29.5 -11.625 Z M 41.484375 -47.671875 C 47.796875 -47.671875 52.289062 -46.441406 54.96875 -43.984375 C 57.644531 -41.523438 58.984375 -37.738281 58.984375 -32.625 C 58.984375 -27.507812 58.175781 -22.15625 56.5625 -16.5625 C 54.957031 -10.976562 52.398438 -6.632812 48.890625 -3.53125 C 45.390625 -0.425781 40.273438 1.125 33.546875 1.125 C 26.828125 1.125 22.125 -0.101562 19.4375 -2.5625 C 16.757812 -5.019531 15.421875 -8.804688 15.421875 -13.921875 C 15.421875 -16.359375 15.765625 -19.570312 16.453125 -23.5625 C 17.148438 -27.5625 18.070312 -31.015625 19.21875 -33.921875 C 20.363281 -36.828125 21.898438 -39.347656 23.828125 -41.484375 C 27.554688 -45.609375 33.441406 -47.671875 41.484375 -47.671875 Z M 14.296875 -23.609375 C 14.203125 -23.210938 14.101562 -22.664062 14 -21.96875 L -15.265625 -25.09375 L 14.53125 -25.09375 Z M 13.484375 -17.953125 C 13.335938 -16.804688 13.265625 -15.765625 13.265625 -14.828125 L -16.09375 -17.953125 Z M 16.3125 -32.25 L 15.421875 -29.203125 L -13.484375 -32.25 Z M 13.328125 -10.796875 C 13.523438 -9.410156 13.703125 -8.367188 13.859375 -7.671875 L -15.125 -10.796875 Z M 19.359375 -39.40625 C 18.671875 -38.113281 18.175781 -37.117188 17.875 -36.421875 L -9.984375 -39.40625 Z M 15.5625 -3.578125 C 16.207031 -2.429688 16.953125 -1.507812 17.796875 -0.8125 L -7.96875 -3.578125 Z M 26.4375 -46.546875 C 25 -45.660156 23.882812 -44.84375 23.09375 -44.09375 L 0.296875 -46.546875 Z M 26.4375 -46.546875 "/></g></g></g><g fill="#ebebeb" fill-opacity="1"><g transform="translate(308.319601, 158.372721)"><g><path d="M 40.515625 -11.25 L 31.28125 -11.25 L 29.34375 0 L 15.1875 0 L 23.390625 -46.546875 L 45.734375 -46.546875 C 54.171875 -46.546875 58.390625 -42.625 58.390625 -34.78125 C 58.390625 -31.0625 57.867188 -27.695312 56.828125 -24.6875 C 55.785156 -21.6875 54.628906 -19.300781 53.359375 -17.53125 C 52.097656 -15.769531 50.363281 -14.28125 48.15625 -13.0625 C 45.945312 -11.851562 43.398438 -11.25 40.515625 -11.25 Z M 36.640625 -23.171875 C 38.328125 -23.171875 39.601562 -23.351562 40.46875 -23.71875 C 41.34375 -24.09375 41.90625 -24.953125 42.15625 -26.296875 C 42.800781 -29.972656 43.125 -31.984375 43.125 -32.328125 C 43.125 -33.265625 42.75 -33.882812 42 -34.1875 C 41.257812 -34.488281 40.144531 -34.640625 38.65625 -34.640625 L 35.375 -34.640625 L 33.375 -23.171875 Z M 12.953125 -0.21875 L -18.625 -3.578125 L 13.5625 -3.578125 Z M 15.5 -14.59375 L -16.09375 -17.953125 L 16.09375 -17.953125 Z M 17.953125 -28.90625 L -13.5625 -32.25 L 18.546875 -32.25 Z M 19.21875 -36.046875 L -12.296875 -39.40625 L 19.8125 -39.40625 Z M 14.21875 -7.453125 L -17.359375 -10.796875 L 14.828125 -10.796875 Z M 20.484375 -43.203125 L -11.03125 -46.546875 L 21.078125 -46.546875 Z M 16.6875 -21.75 L -14.828125 -25.09375 L 17.28125 -25.09375 Z M 16.6875 -21.75 "/></g></g></g><g fill="#ebebeb" fill-opacity="1"><g transform="translate(379.417858, 158.304298)"><g><path d="M 45.921875 -17.34375 L 31.953125 -17.34375 L 31 -11.75 L 48.125 -11.75 L 46.0625 0 L 14.984375 0 L 23.0625 -45.921875 L 53.78125 -45.921875 L 49.953125 -34.15625 L 34.890625 -34.15625 L 33.875 -27.984375 L 47.828125 -27.984375 Z M 12.78125 -0.21875 L -18.359375 -3.53125 L 13.375 -3.53125 Z M 15.28125 -14.40625 L -15.875 -17.703125 L 15.875 -17.703125 Z M 16.53125 -21.453125 L -14.625 -24.765625 L 17.125 -24.765625 Z M 17.78125 -28.5 L -13.375 -31.8125 L 18.359375 -31.8125 Z M 19.03125 -35.5625 L -12.125 -38.859375 L 19.546875 -38.859375 Z M 14.03125 -7.34375 L -17.125 -10.65625 L 14.625 -10.65625 Z M 20.203125 -42.609375 L -10.875 -45.921875 L 20.796875 -45.921875 Z M 20.203125 -42.609375 "/></g></g></g><g fill="#ebebeb" fill-opacity="1"><g transform="translate(432.753888, 158.304298)"><g><path d="M 10.28125 -3.53125 L 8.234375 -0.375 L -21.453125 -3.53125 Z M 19.609375 -17.703125 L 17.5625 -14.546875 L -12.125 -17.703125 Z M -16.75 -10.65625 L 14.984375 -10.65625 L 12.9375 -7.5 Z M 16.234375 -35.5625 L -14.921875 -38.859375 L 15.203125 -38.859375 Z M -10.5 -24.765625 L 19.546875 -24.765625 L 20.578125 -21.453125 Z M -12.640625 -31.8125 L 17.40625 -31.8125 L 18.4375 -28.5 Z M 32.171875 -38.859375 L 34.09375 -30.203125 L 34.75 -30.203125 L 39.96875 -38.859375 L 54.078125 -38.859375 L 41.21875 -19.609375 L 47.3125 0 L 32.90625 0 L 30.640625 -9.109375 L 29.96875 -9.109375 L 24.53125 0 L 10.578125 0 L 23.4375 -19.609375 L 17.40625 -38.859375 Z M 32.171875 -38.859375 "/></g></g></g><g fill="#ebebeb" fill-opacity="1"><g transform="translate(484.4002, 158.304298)"><g><path d="M 36.078125 -9.109375 L 28.953125 -9.109375 L 27.328125 0 L 14.984375 0 L 21.75 -38.859375 L 40.40625 -38.859375 C 47.507812 -38.859375 51.0625 -35.503906 51.0625 -28.796875 C 51.0625 -25.765625 50.617188 -22.972656 49.734375 -20.421875 C 48.859375 -17.878906 47.90625 -15.875 46.875 -14.40625 C 45.84375 -12.9375 44.382812 -11.6875 42.5 -10.65625 C 40.613281 -9.625 38.472656 -9.109375 36.078125 -9.109375 Z M 37.6875 -26.15625 C 37.6875 -26.207031 37.710938 -26.351562 37.765625 -26.59375 C 37.765625 -27.625 36.710938 -28.140625 34.609375 -28.140625 L 32.25 -28.140625 L 30.703125 -19.03125 L 32.984375 -19.03125 C 34.109375 -19.03125 34.988281 -19.164062 35.625 -19.4375 C 36.269531 -19.707031 36.664062 -20.28125 36.8125 -21.15625 Z M 12.5625 -0.21875 L -18.59375 -3.53125 L 13.15625 -3.53125 Z M 15.0625 -14.40625 L -16.09375 -17.703125 L 15.65625 -17.703125 Z M 16.3125 -21.453125 L -14.84375 -24.765625 L 16.890625 -24.765625 Z M 17.5625 -28.5 L -13.59375 -31.8125 L 18.140625 -31.8125 Z M 18.8125 -35.5625 L -12.34375 -38.859375 L 19.328125 -38.859375 Z M 13.8125 -7.34375 L -17.34375 -10.65625 L 14.40625 -10.65625 Z M 13.8125 -7.34375 "/></g></g></g><g fill="#ebebeb" fill-opacity="1"><g transform="translate(535.458788, 158.304298)"><g><path d="M 40.40625 -38.859375 C 47.5625 -38.859375 51.140625 -35.628906 51.140625 -29.171875 C 51.140625 -26.234375 50.550781 -23.179688 49.375 -20.015625 C 48.195312 -16.859375 46.210938 -14.5 43.421875 -12.9375 L 47.609375 0 L 33.875 0 L 31.078125 -11.3125 L 29.3125 -11.3125 L 27.328125 0 L 14.984375 0 L 21.75 -38.859375 Z M 37.6875 -26.15625 C 37.6875 -26.207031 37.710938 -26.453125 37.765625 -26.890625 C 37.765625 -27.722656 36.46875 -28.140625 33.875 -28.140625 L 32.25 -28.140625 L 31.078125 -21.375 L 33.421875 -21.375 C 35.679688 -21.375 36.957031 -22.109375 37.25 -23.578125 Z M 12.5625 -0.21875 L -18.59375 -3.53125 L 13.15625 -3.53125 Z M 15.0625 -14.40625 L -16.09375 -17.703125 L 15.65625 -17.703125 Z M 16.3125 -21.453125 L -14.84375 -24.765625 L 16.890625 -24.765625 Z M 17.5625 -28.5 L -13.59375 -31.8125 L 18.140625 -31.8125 Z M 18.8125 -35.5625 L -12.34375 -38.859375 L 19.328125 -38.859375 Z M 13.8125 -7.34375 L -17.34375 -10.65625 L 14.40625 -10.65625 Z M 13.8125 -7.34375 "/></g></g></g><g fill="#ebebeb" fill-opacity="1"><g transform="translate(588.427475, 158.304298)"><g><path d="M 41.0625 -15.796875 L 30.125 -15.796875 L 29.234375 -10.796875 L 42.828125 -10.796875 L 40.921875 0 L 14.984375 0 L 21.75 -38.859375 L 47.609375 -38.859375 L 44.15625 -27.84375 L 32.171875 -27.84375 L 31.296875 -22.84375 L 42.3125 -22.84375 Z M 12.5625 -0.21875 L -18.59375 -3.53125 L 13.15625 -3.53125 Z M 15.0625 -14.40625 L -16.09375 -17.703125 L 15.65625 -17.703125 Z M 16.3125 -21.453125 L -14.84375 -24.765625 L 16.890625 -24.765625 Z M 17.5625 -28.5 L -13.59375 -31.8125 L 18.140625 -31.8125 Z M 18.8125 -35.5625 L -12.34375 -38.859375 L 19.328125 -38.859375 Z M 13.8125 -7.34375 L -17.34375 -10.65625 L 14.40625 -10.65625 Z M 13.8125 -7.34375 "/></g></g></g><g fill="#ebebeb" fill-opacity="1"><g transform="translate(636.620907, 158.304298)"><g><path d="M -17.484375 -3.53125 L 14.25 -3.53125 L 13.21875 -0.21875 Z M 19.84375 -31.8125 C 19.539062 -31.03125 19.21875 -29.925781 18.875 -28.5 L -11.828125 -31.8125 Z M 18 -22.046875 L 18 -21.453125 L -13.15625 -24.765625 L 18.140625 -24.765625 C 18.046875 -23.585938 18 -22.679688 18 -22.046875 Z M 15.578125 -7.421875 L -15.0625 -10.65625 L 16.609375 -10.65625 Z M 24.90625 -38.859375 C 23.582031 -37.878906 22.578125 -36.851562 21.890625 -35.78125 L -6.765625 -38.859375 Z M 18.65625 -17.703125 C 19.101562 -16.429688 19.816406 -15.332031 20.796875 -14.40625 L -10.28125 -17.703125 Z M 47.96875 -27.328125 C 44.644531 -28.109375 41.804688 -28.5 39.453125 -28.5 C 37.097656 -28.5 35.359375 -28.425781 34.234375 -28.28125 L 33.875 -26.15625 L 37.546875 -25.71875 C 45.429688 -24.6875 49.375 -21.425781 49.375 -15.9375 C 49.375 -15.300781 49.222656 -14.113281 48.921875 -12.375 C 48.628906 -10.632812 48.140625 -8.957031 47.453125 -7.34375 C 46.773438 -5.726562 45.90625 -4.414062 44.84375 -3.40625 C 43.789062 -2.40625 42.765625 -1.597656 41.765625 -0.984375 C 40.765625 -0.378906 39.476562 0.046875 37.90625 0.296875 C 35.457031 0.679688 32.1875 0.875 28.09375 0.875 C 24.007812 0.875 19.882812 0.3125 15.71875 -0.8125 L 19.328125 -11.6875 C 23.140625 -10.601562 26.476562 -10.0625 29.34375 -10.0625 C 32.21875 -10.0625 34.238281 -10.132812 35.40625 -10.28125 L 35.78125 -12.640625 L 31.15625 -13.15625 C 27.1875 -13.59375 24.367188 -14.519531 22.703125 -15.9375 C 21.035156 -17.363281 20.203125 -19.398438 20.203125 -22.046875 C 20.203125 -23.023438 20.328125 -24.25 20.578125 -25.71875 C 21.554688 -30.957031 23.316406 -34.578125 25.859375 -36.578125 C 28.410156 -38.585938 32.289062 -39.59375 37.5 -39.59375 C 42.71875 -39.59375 47.382812 -39.082031 51.5 -38.0625 Z M 47.96875 -27.328125 "/></g></g></g><g fill="#ebebeb" fill-opacity="1"><g transform="translate(689.369201, 158.304298)"><g><path d="M -17.484375 -3.53125 L 14.25 -3.53125 L 13.21875 -0.21875 Z M 19.84375 -31.8125 C 19.539062 -31.03125 19.21875 -29.925781 18.875 -28.5 L -11.828125 -31.8125 Z M 18 -22.046875 L 18 -21.453125 L -13.15625 -24.765625 L 18.140625 -24.765625 C 18.046875 -23.585938 18 -22.679688 18 -22.046875 Z M 15.578125 -7.421875 L -15.0625 -10.65625 L 16.609375 -10.65625 Z M 24.90625 -38.859375 C 23.582031 -37.878906 22.578125 -36.851562 21.890625 -35.78125 L -6.765625 -38.859375 Z M 18.65625 -17.703125 C 19.101562 -16.429688 19.816406 -15.332031 20.796875 -14.40625 L -10.28125 -17.703125 Z M 47.96875 -27.328125 C 44.644531 -28.109375 41.804688 -28.5 39.453125 -28.5 C 37.097656 -28.5 35.359375 -28.425781 34.234375 -28.28125 L 33.875 -26.15625 L 37.546875 -25.71875 C 45.429688 -24.6875 49.375 -21.425781 49.375 -15.9375 C 49.375 -15.300781 49.222656 -14.113281 48.921875 -12.375 C 48.628906 -10.632812 48.140625 -8.957031 47.453125 -7.34375 C 46.773438 -5.726562 45.90625 -4.414062 44.84375 -3.40625 C 43.789062 -2.40625 42.765625 -1.597656 41.765625 -0.984375 C 40.765625 -0.378906 39.476562 0.046875 37.90625 0.296875 C 35.457031 0.679688 32.1875 0.875 28.09375 0.875 C 24.007812 0.875 19.882812 0.3125 15.71875 -0.8125 L 19.328125 -11.6875 C 23.140625 -10.601562 26.476562 -10.0625 29.34375 -10.0625 C 32.21875 -10.0625 34.238281 -10.132812 35.40625 -10.28125 L 35.78125 -12.640625 L 31.15625 -13.15625 C 27.1875 -13.59375 24.367188 -14.519531 22.703125 -15.9375 C 21.035156 -17.363281 20.203125 -19.398438 20.203125 -22.046875 C 20.203125 -23.023438 20.328125 -24.25 20.578125 -25.71875 C 21.554688 -30.957031 23.316406 -34.578125 25.859375 -36.578125 C 28.410156 -38.585938 32.289062 -39.59375 37.5 -39.59375 C 42.71875 -39.59375 47.382812 -39.082031 51.5 -38.0625 Z M 47.96875 -27.328125 "/></g></g></g></svg>